<?xml version="1.0" standalone="no"?>
<!DOCTYPE svg PUBLIC "-//W3C//DTD SVG 20010904//EN"
 "http://www.w3.org/TR/2001/REC-SVG-20010904/DTD/svg10.dtd">
<svg version="1.0" xmlns="http://www.w3.org/2000/svg"
 width="109.000000pt" height="109.000000pt" viewBox="0 0 109.000000 109.000000"
 preserveAspectRatio="xMidYMid meet">
<metadata>
Created by potrace 1.11, written by Peter Selinger 2001-2013
</metadata>
<g transform="translate(0.000000,109.000000) scale(0.100000,-0.100000)"
fill="#000000" stroke="none">
<path d="M0 545 l0 -545 545 0 545 0 0 545 0 545 -545 0 -545 0 0 -545z m638
391 c138 -37 233 -138 262 -281 30 -143 -32 -284 -159 -366 -57 -37 -69 -37
-63 0 3 21 16 38 43 56 116 76 162 251 100 373 -28 54 -88 115 -143 144 -66
35 -183 33 -260 -5 -200 -98 -225 -378 -46 -507 38 -28 66 -75 52 -89 -11 -11
-96 43 -135 86 -22 25 -53 70 -67 101 -23 48 -27 70 -27 142 1 70 5 95 27 142
75 163 249 248 416 204z m-20 -118 c60 -15 142 -94 160 -154 25 -86 9 -163
-49 -227 l-37 -42 -11 29 c-9 23 -9 32 3 45 48 55 59 136 27 199 -23 46 -46
67 -94 87 -51 21 -95 19 -147 -7 -99 -50 -128 -169 -66 -261 23 -33 26 -87 6
-87 -19 0 -72 79 -86 128 -43 148 65 294 224 301 13 1 44 -4 70 -11z m-30
-119 c39 -13 62 -48 62 -94 0 -47 -24 -81 -65 -95 -69 -23 -135 23 -135 94 1
47 14 69 56 91 35 18 42 18 82 4z m44 -257 c25 -25 26 -98 3 -219 -16 -86 -37
-113 -85 -113 -50 0 -68 26 -85 124 -34 197 -16 240 98 232 32 -2 56 -10 69
-24z"/>
</g>
</svg>
